<svg width="34" height="34" viewBox="0 0 34 34" fill="none" xmlns="http://www.w3.org/2000/svg">
<path d="M17.0283 4.12246C12.3392 4.12246 8.52834 7.93329 8.52834 12.6225V16.7166C8.52834 17.5808 8.16 18.8983 7.72084 19.635L6.09167 22.3408C5.08584 24.0125 5.78 25.8683 7.62167 26.4916C13.7275 28.5316 20.315 28.5316 26.4208 26.4916C28.135 25.925 28.8858 23.8991 27.9508 22.3408L26.3217 19.635C25.8967 18.8983 25.5283 17.5808 25.5283 16.7166V12.6225C25.5283 7.94746 21.7033 4.12246 17.0283 4.12246Z" fill="white"/>
<path d="M19.6492 4.53329C19.21 4.40579 18.7567 4.30662 18.2892 4.24996C16.9292 4.07996 15.6258 4.17912 14.4075 4.53329C14.8183 3.48496 15.8383 2.74829 17.0283 2.74829C18.2183 2.74829 19.2383 3.48496 19.6492 4.53329Z" fill="white"/>
<path d="M21.2783 27.0016C21.2783 29.3391 19.3658 31.2516 17.0283 31.2516C15.8667 31.2516 14.79 30.77 14.025 30.005C13.26 29.24 12.7783 28.1633 12.7783 27.0016" fill="white"/>
<path d="M7.72084 19.635L8.57754 20.1508L8.57978 20.147L7.72084 19.635ZM6.09167 22.3408L5.23497 21.825L5.23482 21.8252L6.09167 22.3408ZM7.62167 26.4916L7.30107 27.4388L7.30478 27.4401L7.62167 26.4916ZM26.4208 26.4916L26.107 25.5422L26.1039 25.5432L26.4208 26.4916ZM27.9508 22.3408L28.8083 21.8263L28.8075 21.825L27.9508 22.3408ZM26.3217 19.635L25.4555 20.1347L25.4601 20.1428L25.465 20.1508L26.3217 19.635ZM19.6492 4.53329L19.3704 5.49364C19.7363 5.59987 20.1308 5.48893 20.3877 5.20753C20.6446 4.92612 20.7193 4.52318 20.5802 4.16842L19.6492 4.53329ZM18.2892 4.24996L18.1651 5.24224L18.1688 5.24269L18.2892 4.24996ZM14.4075 4.53329L13.4764 4.16842C13.3374 4.52324 13.4121 4.92625 13.6691 5.20765C13.9261 5.48905 14.3207 5.59992 14.6866 5.49354L14.4075 4.53329ZM17.0283 3.12246C11.7869 3.12246 7.52834 7.38101 7.52834 12.6225H9.52834C9.52834 8.48558 12.8915 5.12246 17.0283 5.12246V3.12246ZM7.52834 12.6225V16.7166H9.52834V12.6225H7.52834ZM7.52834 16.7166C7.52834 17.0282 7.45815 17.479 7.32571 17.9561C7.19335 18.4329 7.02108 18.8559 6.86189 19.1229L8.57978 20.147C8.85975 19.6774 9.09124 19.0732 9.25284 18.4911C9.41435 17.9092 9.52834 17.2692 9.52834 16.7166H7.52834ZM6.86413 19.1191L5.23497 21.825L6.94837 22.8566L8.57754 20.1508L6.86413 19.1191ZM5.23482 21.8252C4.59052 22.896 4.45767 24.0941 4.85108 25.1566C5.24406 26.2179 6.1237 27.0403 7.30107 27.4388L7.94227 25.5444C7.27798 25.3196 6.88969 24.9025 6.72663 24.4621C6.56401 24.0229 6.58699 23.4572 6.94852 22.8564L5.23482 21.8252ZM7.30478 27.4401C13.6163 29.5488 20.4262 29.5488 26.7377 27.4401L26.1039 25.5432C20.2038 27.5144 13.8387 27.5144 7.93856 25.5432L7.30478 27.4401ZM26.7347 27.4411C29.0609 26.6721 30.071 23.9307 28.8083 21.8263L27.0933 22.8553C27.7007 23.8675 27.2091 25.1778 26.107 25.5422L26.7347 27.4411ZM28.8075 21.825L27.1784 19.1191L25.465 20.1508L27.0941 22.8566L28.8075 21.825ZM27.1879 19.1352C27.0315 18.8642 26.8611 18.4372 26.73 17.9591C26.5986 17.4799 26.5283 17.0285 26.5283 16.7166H24.5283C24.5283 17.2689 24.6422 17.9083 24.8012 18.4881C24.9605 19.0689 25.1869 19.6691 25.4555 20.1347L27.1879 19.1352ZM26.5283 16.7166V12.6225H24.5283V16.7166H26.5283ZM26.5283 12.6225C26.5283 7.39517 22.2556 3.12246 17.0283 3.12246V5.12246C21.1511 5.12246 24.5283 8.49974 24.5283 12.6225H26.5283ZM19.928 3.57294C19.4454 3.43283 18.9387 3.32136 18.4095 3.25722L18.1688 5.24269C18.5747 5.29188 18.9746 5.37875 19.3704 5.49364L19.928 3.57294ZM18.4132 3.25768C16.9257 3.07175 15.4848 3.17874 14.1284 3.57304L14.6866 5.49354C15.7669 5.17951 16.9326 5.08817 18.1651 5.24224L18.4132 3.25768ZM15.3386 4.89816C15.6035 4.22221 16.2612 3.74829 17.0283 3.74829V1.74829C15.4155 1.74829 14.0332 2.74771 13.4764 4.16842L15.3386 4.89816ZM17.0283 3.74829C17.7955 3.74829 18.4532 4.2222 18.7181 4.89816L20.5802 4.16842C20.0235 2.74771 18.6412 1.74829 17.0283 1.74829V3.74829ZM20.2783 27.0016C20.2783 28.7868 18.8136 30.2516 17.0283 30.2516V32.2516C19.9181 32.2516 22.2783 29.8914 22.2783 27.0016H20.2783ZM17.0283 30.2516C16.1433 30.2516 15.3178 29.8836 14.7321 29.2978L13.3179 30.7121C14.2622 31.6564 15.59 32.2516 17.0283 32.2516V30.2516ZM14.7321 29.2978C14.1464 28.7122 13.7783 27.8866 13.7783 27.0016H11.7783C11.7783 28.4399 12.3736 29.7678 13.3179 30.7121L14.7321 29.2978Z" fill="#057DCD"/>
</svg>
