<svg width="34" height="34" viewBox="0 0 34 34" fill="none" xmlns="http://www.w3.org/2000/svg">
<path d="M11.3333 2.83337V7.08337M22.6667 2.83337V7.08337M29.75 19.3092V12.0417C29.75 7.79171 27.625 4.95837 22.6667 4.95837H11.3333C6.375 4.95837 4.25 7.79171 4.25 12.0417V24.0834C4.25 28.3334 6.375 31.1667 11.3333 31.1667H20.7967M29.75 19.3092C28.4892 18.3034 26.8883 17.7084 25.1458 17.7084C23.4033 17.7084 21.7742 18.3175 20.4992 19.3517C18.785 20.6975 17.7083 22.8084 17.7083 25.1459C17.7083 26.5342 18.105 27.8659 18.785 28.9709C19.3092 29.8351 19.9892 30.5859 20.7967 31.1667M29.75 19.3092C31.4783 20.6692 32.5833 22.78 32.5833 25.1459C32.5833 26.5342 32.1867 27.8659 31.5067 28.9709C31.11 29.6509 30.6142 30.2459 30.0333 30.7275C28.73 31.8892 27.03 32.5834 25.1458 32.5834C23.5167 32.5834 22.015 32.0592 20.7967 31.1667M9.91667 15.5834H18.4167M9.91667 22.6667H13.6283M25.1458 28.6875C25.1458 26.7325 26.7325 25.1459 28.6875 25.1459C26.7325 25.1459 25.1458 23.5592 25.1458 21.6042C25.1458 23.5592 23.5592 25.1459 21.6042 25.1459C23.5592 25.1459 25.1458 26.7325 25.1458 28.6875Z" stroke="white" stroke-width="1.5" stroke-linecap="round" stroke-linejoin="round"/>
</svg>
