<svg width="34" height="34" viewBox="0 0 34 34" fill="none" xmlns="http://www.w3.org/2000/svg">
<path d="M11.3335 8.50065V7.36732C11.3335 4.85982 11.3335 2.83398 15.8668 2.83398H18.1335C22.6668 2.83398 22.6668 4.85982 22.6668 7.36732V8.50065M19.8335 19.8623C19.8335 19.8482 19.8335 19.8482 19.8335 19.834V18.4173C19.8335 17.0007 19.8335 17.0007 18.4168 17.0007H15.5835C14.1668 17.0007 14.1668 17.0007 14.1668 18.4173V19.8765M19.8335 19.8623C19.8335 21.4065 19.8193 22.6673 17.0002 22.6673C14.1952 22.6673 14.1668 21.4207 14.1668 19.8765M19.8335 19.8623C23.6585 19.3807 27.3985 17.964 30.671 15.584M14.1668 19.8765C10.4977 19.4657 6.89933 18.1482 3.71183 15.9665M11.3335 31.1673H22.6668C28.3618 31.1673 29.3818 28.8865 29.6793 26.1098L30.7418 14.7765C31.1243 11.3198 30.1327 8.50065 24.0835 8.50065H9.91683C3.86766 8.50065 2.87599 11.3198 3.25849 14.7765L4.32099 26.1098C4.61849 28.8865 5.6385 31.1673 11.3335 31.1673Z" stroke="#005B98" stroke-width="2" stroke-miterlimit="10" stroke-linecap="round" stroke-linejoin="round"/>
</svg>
