<svg width="24" height="24" viewBox="0 0 24 24" fill="none" xmlns="http://www.w3.org/2000/svg">
<path d="M4.35001 9.65V11.35C4.35001 15.57 7.78001 19 12 19M12 19C16.22 19 19.65 15.57 19.65 11.35V9.65M12 19V22M10.61 6.43C11.51 6.1 12.49 6.1 13.39 6.43M11.2 8.55C11.73 8.41 12.28 8.41 12.81 8.55M12 15.5C14.21 15.5 16 13.71 16 11.5V6C16 3.79 14.21 2 12 2C9.79001 2 8.00001 3.79 8.00001 6V11.5C8.00001 13.71 9.79001 15.5 12 15.5Z" stroke="#292D32" stroke-width="1.5" stroke-linecap="round" stroke-linejoin="round"/>
</svg>
 