<?xml version="1.0" encoding="UTF-8"?>
<svg version="1.1" xmlns="http://www.w3.org/2000/svg" width="192" height="192">
<path d="M0 0 C2.63676558 1.07490965 5.09301658 2.3461311 7.59350586 3.71020508 C8.64989258 4.28448242 9.7062793 4.85875977 10.79467773 5.45043945 C11.89231445 6.05307617 12.98995117 6.65571289 14.12084961 7.27661133 C15.22235352 7.87538086 16.32385742 8.47415039 17.45874023 9.09106445 C25.58892997 13.5261649 25.58892997 13.5261649 29.05834961 15.83911133 C29.05834961 16.49911133 29.05834961 17.15911133 29.05834961 17.83911133 C27.03320312 19.36035156 27.03320312 19.36035156 24.18725586 21.14770508 C23.14609619 21.80697998 22.10493652 22.46625488 21.03222656 23.14550781 C19.89514198 23.85594139 18.75801543 24.5663078 17.62084961 25.27661133 C16.46826342 26.00378662 15.31616561 26.73173657 14.16455078 27.46044922 C11.86322501 28.91613454 9.56009239 30.3688895 7.25561523 31.81958008 C3.10656193 34.44030159 -1.01455798 37.10224836 -5.12915039 39.77661133 C-6.45856829 40.63600054 -7.78799513 41.49537591 -9.11743164 42.35473633 C-11.74927627 44.05947683 -14.36953897 45.78065074 -16.98461914 47.51098633 C-17.63084229 47.93516846 -18.27706543 48.35935059 -18.94287109 48.79638672 C-20.15474725 49.59204065 -21.3631817 50.3929725 -22.56738281 51.20019531 C-25.27921822 52.9732712 -26.62710338 53.83911133 -29.94165039 53.83911133 C-32.23163023 72.95547308 -32.23163023 72.95547308 -26.68109131 90.51904297 C-23.02657978 94.12617047 -18.74612406 96.4848636 -14.12915039 98.65161133 C-13.16193054 99.1095256 -13.16193054 99.1095256 -12.1751709 99.57669067 C-4.96587726 103.13469909 -4.96587726 103.13469909 2.72143555 103.10009766 C4.85005122 101.95150802 6.94120802 100.80112268 8.99194336 99.51879883 C10.0775354 98.84602905 10.0775354 98.84602905 11.18505859 98.15966797 C12.32890015 97.44411743 12.32890015 97.44411743 13.49584961 96.71411133 C18.94417271 93.3405044 24.40483659 90.0333698 29.99584961 86.90161133 C39.92380211 81.29674613 49.57310875 75.16260523 59.05834961 68.83911133 C60.04834961 68.83911133 61.03834961 68.83911133 62.05834961 68.83911133 C62.13247726 74.05351646 62.18694065 79.26761526 62.22314453 84.48242188 C62.23823602 86.25656476 62.25871152 88.03067031 62.28466797 89.8046875 C62.32103601 92.3540162 62.33807199 94.90285192 62.35131836 97.45239258 C62.36680222 98.24623856 62.38228607 99.04008453 62.39823914 99.85798645 C62.39992055 105.35312597 62.39992055 105.35312597 60.69384766 107.78051758 C58.43719 109.24116358 56.11895124 110.38716767 53.68334961 111.52661133 C47.59832901 114.50038477 41.92176361 117.91021996 36.19067383 121.50952148 C31.58385222 124.3820599 26.9437613 127.20054466 22.30834961 130.02661133 C21.33792725 130.62086914 20.36750488 131.21512695 19.36767578 131.82739258 C17.49166844 132.97169452 15.61068063 134.10787865 13.72436523 135.23510742 C11.98831257 136.27960064 10.26706214 137.34923459 8.56420898 138.44702148 C2.90923263 141.9429326 2.90923263 141.9429326 -0.88696289 141.47973633 C-2.3990332 140.66762695 -2.3990332 140.66762695 -3.94165039 139.83911133 C-4.64644531 139.48139648 -5.35124023 139.12368164 -6.07739258 138.75512695 C-8.6852231 137.41383665 -11.2507644 136.00894572 -13.81665039 134.58911133 C-14.76902588 134.06623535 -15.72140137 133.54335937 -16.70263672 133.00463867 C-25.06626535 128.38426292 -33.32780379 123.5927459 -41.55639648 118.73657227 C-42.49177246 118.18517578 -43.42714844 117.6337793 -44.39086914 117.06567383 C-45.29885254 116.51427734 -46.20683594 115.96288086 -47.14233398 115.39477539 C-49.93206878 113.76279658 -49.93206878 113.76279658 -53.05737305 112.61938477 C-56.1968462 111.31662741 -58.45995986 110.16787978 -60.94165039 107.83911133 C-62.30167684 103.72691712 -62.12962298 99.77021912 -61.99163818 95.47155762 C-61.93384937 92.42829582 -62.01556592 89.40391023 -62.11010742 86.36157227 C-62.30161305 80.11717621 -62.39788419 73.87611357 -62.45654297 67.62915039 C-62.4885019 65.00097938 -62.53657367 62.37295888 -62.60009766 59.74536133 C-62.6909571 55.91930093 -62.73004625 52.09577161 -62.75805664 48.26879883 C-62.79620987 47.09485565 -62.8343631 45.92091248 -62.87367249 44.71139526 C-62.85469158 36.80783465 -62.85469158 36.80783465 -60.25927734 34.05413818 C-58.20292787 32.75256244 -56.18606817 31.77185155 -53.94165039 30.83911133 C-52.75611572 30.11498047 -52.75611572 30.11498047 -51.54663086 29.3762207 C-50.89065918 28.98241211 -50.2346875 28.58860352 -49.55883789 28.18286133 C-48.79490723 27.72411621 -48.03097656 27.26537109 -47.24389648 26.79272461 C-46.44290527 26.31303223 -45.64191406 25.83333984 -44.81665039 25.33911133 C-43.96280762 24.82719238 -43.10896484 24.31527344 -42.22924805 23.7878418 C-34.71362688 19.28827741 -27.17539315 14.82728326 -19.62866211 10.38012695 C-18.34113037 9.62119141 -18.34113037 9.62119141 -17.02758789 8.84692383 C-16.19066406 8.35740234 -15.35374023 7.86788086 -14.49145508 7.36352539 C-12.71395836 6.30083969 -10.9552621 5.20634059 -9.2121582 4.08813477 C-8.33140625 3.52900391 -7.4506543 2.96987305 -6.54321289 2.39379883 C-5.7551123 1.88059082 -4.96701172 1.36738281 -4.1550293 0.83862305 C-1.94165039 -0.16088867 -1.94165039 -0.16088867 0 0 Z " fill="#FFFFFF" transform="translate(95.941650390625,25.160888671875)"/>
<path d="M0 0 C2.88797017 0.985467 5.37011741 2.38225313 8.02490234 3.88793945 C9.13091797 4.5118457 10.23693359 5.13575195 11.37646484 5.77856445 C12.53800903 6.43987202 13.69946641 7.10133207 14.86083984 7.76293945 C16.02985838 8.42484358 17.19912673 9.08630669 18.36865234 9.74731445 C20.50619892 10.95592724 22.64255014 12.16665816 24.77734375 13.38012695 C26.2460569 14.2062234 27.7286428 15.00934093 29.23583984 15.76293945 C30.41349801 22.40493151 30.65429233 29.15449043 30.86083984 35.88793945 C30.9671875 37.47541992 30.9671875 37.47541992 31.07568359 39.0949707 C31.25555904 46.64027211 31.25555904 46.64027211 28.55273438 49.6159668 C26.18956293 51.21180011 23.78444644 52.48556441 21.23583984 53.76293945 C19.51154906 54.82008025 17.79542749 55.89065238 16.08740234 56.97387695 C14.34661629 58.03087598 12.60441963 59.08555523 10.86083984 60.13793945 C9.97267578 60.68321289 9.08451172 61.22848633 8.16943359 61.7902832 C7.31736328 62.30461914 6.46529297 62.81895508 5.58740234 63.34887695 C4.82250488 63.81342285 4.05760742 64.27796875 3.26953125 64.7565918 C1.23583984 65.76293945 1.23583984 65.76293945 -1.76416016 65.76293945 C-1.70429932 64.88669922 -1.64443848 64.01045898 -1.58276367 63.10766602 C-0.19301538 46.65843042 -0.19301538 46.65843042 -6.06787109 32.14916992 C-11.64353809 28.13824984 -17.81912947 25.65763725 -24.34399414 23.59960938 C-26.76416016 22.76293945 -26.76416016 22.76293945 -29.76416016 20.76293945 C-28.27717791 16.00678299 -24.30719948 14.32731517 -20.26416016 11.95043945 C-14.53977341 8.50696319 -9.06950717 4.94173094 -3.77978516 0.8449707 C-1.76416016 -0.23706055 -1.76416016 -0.23706055 0 0 Z " fill="#54BEFE" transform="translate(127.76416015625,43.237060546875)"/>
<path d="M0 0 C0.78632812 -0.01611328 1.57265625 -0.03222656 2.3828125 -0.04882812 C7.75311995 -0.05328851 11.4952636 0.77908833 16.25 3.3125 C19.04608091 6.68708041 19.84117888 10.26791736 20.77734375 14.453125 C21.31887226 16.58343551 22.24155111 18.36763428 23.25 20.3125 C23.25 21.3025 23.25 22.2925 23.25 23.3125 C22.26 23.6425 21.27 23.9725 20.25 24.3125 C19.92 27.6125 19.59 30.9125 19.25 34.3125 C16.28 34.8075 16.28 34.8075 13.25 35.3125 C12.59 38.6125 11.93 41.9125 11.25 45.3125 C7.62 45.3125 3.99 45.3125 0.25 45.3125 C-0.41 42.0125 -1.07 38.7125 -1.75 35.3125 C-3.9465625 35.126875 -3.9465625 35.126875 -6.1875 34.9375 C-8.68359375 34.7265625 -8.68359375 34.7265625 -10.75 34.3125 C-12.25934217 31.29381566 -11.92510672 28.63952771 -11.75 25.3125 C-10.76 23.8275 -10.76 23.8275 -9.75 22.3125 C-6.71133201 21.90112798 -3.82840297 22.18056844 -0.75 22.3125 C-0.75 19.3425 -0.75 16.3725 -0.75 13.3125 C-2.008125 13.374375 -3.26625 13.43625 -4.5625 13.5 C-7.08113951 13.47771115 -8.47995606 13.44752197 -10.75 12.3125 C-12.45552828 8.90144344 -12.11027104 6.09534597 -11.75 2.3125 C-7.84783514 -0.28894324 -4.52432117 -0.01818457 0 0 Z " fill="#53BDFF" transform="translate(100.75,72.6875)"/>
<path d="M0 0 C1.051875 -0.02126953 1.051875 -0.02126953 2.125 -0.04296875 C4 0.1875 4 0.1875 6 2.1875 C6.23046875 4.31640625 6.23046875 4.31640625 6.1875 6.75 C6.17783203 7.95849609 6.17783203 7.95849609 6.16796875 9.19140625 C6 11.1875 6 11.1875 5 12.1875 C1.3308423 12.33060287 -2.32715441 12.22971662 -6 12.1875 C-6 8.5575 -6 4.9275 -6 1.1875 C-3.77109005 0.07304502 -2.46944894 0.02269714 0 0 Z " fill="#53BEFF" transform="translate(85,105.8125)"/>
<path d="M0 0 C8.49609375 -0.09765625 8.49609375 -0.09765625 11 0 C12.58894072 1.58894072 12.16998411 3.24801424 12.1875 5.4375 C12.20167969 6.24058594 12.21585938 7.04367188 12.23046875 7.87109375 C12 10 12 10 10 12 C8.125 12.23046875 8.125 12.23046875 6 12.1875 C5.29875 12.18105469 4.5975 12.17460938 3.875 12.16796875 C2 12 2 12 0 11 C0 7.37 0 3.74 0 0 Z " fill="#54BEFF" transform="translate(68,85)"/>
</svg>
