<svg xmlns="http://www.w3.org/2000/svg" viewBox="0 0 375 374.999991">
    <path fill="#54beff" d="M 181.660156 144.699219 L 212.234375 144.699219 C 224 144.699219 233.632812 154.324219 233.632812 166.097656 L 233.632812 170.28125 L 241.480469 185.683594 L 233.796875 187.496094 L 233.796875 204.007812 C 233.796875 206.695312 231.597656 208.894531 228.910156 208.894531 L 224.363281 208.894531 C 221.667969 208.894531 219.414062 210.914062 219.066406 213.527344 C 219.097656 213.757812 219.113281 214 219.113281 214.246094 L 219.113281 224.941406 C 219.113281 227.882812 216.703125 230.292969 213.761719 230.292969 L 203.058594 230.292969 C 200.113281 230.292969 197.707031 227.882812 197.707031 224.941406 L 197.707031 214.238281 C 197.707031 211.320312 195.335938 208.925781 192.425781 208.886719 L 181.660156 208.886719 C 178.714844 208.886719 176.308594 206.476562 176.308594 203.535156 L 176.308594 192.839844 C 176.308594 189.898438 178.714844 187.488281 181.660156 187.488281 L 192.355469 187.488281 C 195.296875 187.488281 197.707031 185.078125 197.707031 182.136719 L 197.707031 171.441406 C 197.707031 168.5 195.296875 166.089844 192.355469 166.089844 L 181.660156 166.089844 C 178.714844 166.089844 176.308594 163.679688 176.308594 160.738281 L 176.308594 150.050781 C 176.316406 147.109375 178.722656 144.699219 181.660156 144.699219 Z"/>
</svg>
